{"accessors":[{"bufferView":1,"componentType":5126,"count":18,"max":[25.5,21.5,33.5],"min":[22.5,17.5,31.5],"type":"VEC3"},{"bufferView":1,"byteOffset":216,"componentType":5126,"count":18,"max":[0,1,0],"min":[0,-1,0],"type":"VEC3"},{"bufferView":2,"componentType":5126,"count":18,"max":[0,1,0.4000000059604645,1],"min":[0,1,0.4000000059604645,1],"type":"VEC4"},{"bufferView":0,"componentType":5125,"count":48,"type":"SCALAR"},{"bufferView":1,"byteOffset":432,"componentType":5126,"count":4476,"max":[38.5,25.5,35.5],"min":[6.5,13.5,-0.5],"type":"VEC3"},{"bufferView":1,"byteOffset":54144,"componentType":5126,"count":4476,"max":[1,1,1],"min":[-1,-1,-1],"type":"VEC3"},{"bufferView":2,"byteOffset":288,"componentType":5126,"count":4476,"max":[0,0.6000000238418579,0,1],"min":[0,0.6000000238418579,0,1],"type":"VEC4"},{"bufferView":0,"byteOffset":192,"componentType":5125,"count":15732,"type":"SCALAR"}],"asset":{"extras":{"author":"durs (https://sketchfab.com/harut080211)","license":"CC-BY-ND-4.0 (http://creativecommons.org/licenses/by-nd/4.0/)","source":"https://sketchfab.com/3d-models/chrome-3d-dino-d3b0a9d29e5946acb885050a31e6fa92","title":"Chrome 3d Dino"},"generator":"Sketchfab-12.68.0","version":"2.0"},"bufferViews":[{"buffer":0,"byteLength":63120,"name":"floatBufferViews","target":34963},{"buffer":0,"byteLength":107856,"byteOffset":63120,"byteStride":12,"name":"floatBufferViews","target":34962},{"buffer":0,"byteLength":71904,"byteOffset":170976,"byteStride":16,"name":"floatBufferViews","target":34962}],"buffers":[{"byteLength":242880,"uri":"data:application/octet-stream;base64,"}],"materials":[{"doubleSided":true,"name":"VoxMaterial_184","pbrMetallicRoughness":{"baseColorFactor":[0.8,0.8,0.8,1],"metallicFactor":0,"roughnessFactor":0.6}},{"doubleSided":true,"name":"VoxMaterial_198","pbrMetallicRoughness":{"baseColorFactor":[0.8,0.8,0.8,1],"metallicFactor":0,"roughnessFactor":0.6}}],"meshes":[{"name":"Object_0","primitives":[{"attributes":{"COLOR_0":2,"NORMAL":1,"POSITION":0},"indices":3,"material":0,"mode":4}]},{"name":"Object_1","primitives":[{"attributes":{"COLOR_0":6,"NORMAL":5,"POSITION":4},"indices":7,"material":1,"mode":4}]}],"nodes":[{"children":[1],"matrix":[1,0,0,0,0,2.220446049250313e-16,-1,0,0,1,2.220446049250313e-16,0,0,0,0,1],"name":"Sketchfab_model"},{"children":[2],"name":"VoxRoot"},{"children":[3],"name":"VoxTransform"},{"children":[4],"name":"VoxGroup"},{"children":[5,6],"matrix":[1,0,0,0,0,1,0,0,0,0,1,0,0,0,20,1],"name":"VoxTransform"},{"mesh":0,"name":"Object_5"},{"mesh":1,"name":"Object_6"}],"scene":0,"scenes":[{"name":"Sketchfab_Scene","nodes":[0]}]}